<svg xmlns="http://www.w3.org/2000/svg" version="1.1" xmlns:xlink="http://www.w3.org/1999/xlink" width="200" height="200"><svg xmlns="http://www.w3.org/2000/svg" version="1.1" xmlns:xlink="http://www.w3.org/1999/xlink" viewBox="0 0 200 200"><rect width="200" height="200" fill="url('#gradient')"></rect><defs><linearGradient id="SvgjsLinearGradient1001" gradientTransform="rotate(45 0.5 0.5)"><stop offset="0%" stop-color="#b28c36"></stop><stop offset="100%" stop-color="#e3cc72"></stop></linearGradient></defs><g><g fill="#211e23" transform="matrix(3.3545807884508605,0,0,3.3545807884508605,41.094967248329255,117.03939298018689)" stroke="#832018" stroke-width="0"><path d="M9.98 0L9.15-2.66L4.45-2.66L3.63 0L-0.03 0L5.19-14.22L8.41-14.22L13.66 0L9.98 0ZM6.80-10.23L5.27-5.30L8.33-5.30L6.80-10.23ZM23.89-5.36L23.89-5.21Q23.89-2.74 22.78-1.27Q21.67 0.20 19.79 0.20L19.79 0.20Q18.33 0.20 17.39-0.87L17.39-0.87L17.39 4.06L14.10 4.06L14.10-10.57L17.18-10.57L17.28-9.59Q18.22-10.76 19.77-10.76L19.77-10.76Q21.72-10.76 22.80-9.32Q23.89-7.88 23.89-5.36L23.89-5.36ZM20.60-5.06L20.60-5.41Q20.60-8.22 18.96-8.22L18.96-8.22Q17.78-8.22 17.39-7.38L17.39-7.38L17.39-3.22Q17.82-2.34 18.97-2.34L18.97-2.34Q20.55-2.34 20.60-5.06L20.60-5.06ZM35.15-5.36L35.15-5.21Q35.15-2.74 34.04-1.27Q32.93 0.20 31.04 0.20L31.04 0.20Q29.59 0.20 28.65-0.87L28.65-0.87L28.65 4.06L25.36 4.06L25.36-10.57L28.44-10.57L28.54-9.59Q29.48-10.76 31.03-10.76L31.03-10.76Q32.98-10.76 34.06-9.32Q35.15-7.88 35.15-5.36L35.15-5.36ZM31.86-5.06L31.86-5.41Q31.86-8.22 30.21-8.22L30.21-8.22Q29.04-8.22 28.65-7.38L28.65-7.38L28.65-3.22Q29.08-2.34 30.23-2.34L30.23-2.34Q31.81-2.34 31.86-5.06L31.86-5.06Z"></path></g></g></svg><style>@media (prefers-color-scheme: light) { :root { filter: none; } }
@media (prefers-color-scheme: dark) { :root { filter: none; } }
</style></svg>